<svg xmlns:dc="http://purl.org/dc/elements/1.1/" xmlns:cc="http://creativecommons.org/ns#" xmlns:rdf="http://www.w3.org/1999/02/22-rdf-syntax-ns#" xmlns:svg="http://www.w3.org/2000/svg" xmlns="http://www.w3.org/2000/svg" xmlns:sodipodi="http://sodipodi.sourceforge.net/DTD/sodipodi-0.dtd" xmlns:inkscape="http://www.inkscape.org/namespaces/inkscape" version="1.1" x="0px" y="0px" viewBox="0 0 100 125"><g transform="translate(0,-952.36218)"><path style="text-indent:0;text-transform:none;direction:ltr;block-progression:tb;baseline-shift:baseline;color:#000000;enable-background:accumulate;" d="m 15.000002,958.36217 c -4.9883,0 -8.9999995,4.16962 -8.9999995,9.28125 l 0,69.40628 c 0,5.1116 4.0116995,9.3125 8.9999995,9.3125 l 69.999996,0 c 4.9883,0 9,-4.2009 9,-9.3125 l 0,-69.40628 c 0,-5.11163 -4.0117,-9.28125 -9,-9.28125 l -69.999995,0 z m 0,2 69.999996,0 c 3.8758,0 7,3.20522 7,7.28125 l 0,69.40628 c 0,4.076 -3.1242,7.3125 -7,7.3125 l -69.999995,0 c -3.8758,0 -7.0000005,-3.2365 -7.0000005,-7.3125 l 0,-69.40628 c 0,-4.07603 3.1242005,-7.28125 7.0000005,-7.28125 z m 35,9 c -7.1679,0 -13,5.83212 -13,13 0,7.16792 5.8321,13.00002 13,13.00002 7.1679,0 13,-5.8321 13,-13.00002 0,-7.16788 -5.8321,-13 -13,-13 z m 0,2 c 6.087,0 11,4.913 11,11 0,6.08702 -4.913,11.00002 -11,11.00002 -6.087,0 -11,-4.913 -11,-11.00002 0,-6.087 4.913,-11 11,-11 z m 0,27.96872 c -7.6415,0 -14.5548,1.86211 -19.625,4.87501 -5.0702,3.013 -8.375,7.2878 -8.375,12.0625 l 0,19.0625 a 1.0001,1.0001 0 0 0 1,1 l 54,0 a 1.0001,1.0001 0 0 0 1,-1 l 0,-19.0625 c 0,-4.7747 -3.3048,-9.0495 -8.375,-12.0625 -5.0702,-3.0129 -11.983499,-4.87501 -19.625,-4.87501 z m 0,2.00001 c 7.3165,0 13.9033,1.8066 18.5938,4.5938 4.6902,2.7872 7.4062,6.5006 7.4062,10.3437 l 0,18.0625 -52,0 0,-18.0625 c 0,-3.8431 2.716,-7.5565 7.4062,-10.3437 4.6904,-2.7872 11.2773,-4.5938 18.5938,-4.5938 z" fill="#000000" fill-opacity="1" stroke="none" marker="none" visibility="visible" display="inline" overflow="visible"/></g><text x="0" y="115" fill="#000000" font-size="5px" font-weight="bold" font-family="'Helvetica Neue', Helvetica, Arial-Unicode, Arial, Sans-serif">Created by AFY Studio</text><text x="0" y="120" fill="#000000" font-size="5px" font-weight="bold" font-family="'Helvetica Neue', Helvetica, Arial-Unicode, Arial, Sans-serif">from the Noun Project</text></svg>