<svg xmlns="http://www.w3.org/2000/svg" xmlns:xlink="http://www.w3.org/1999/xlink" version="1.1" x="0px" y="0px" viewBox="0 0 100 125" enable-background="new 0 0 100 100" xml:space="preserve"><g><path d="M8.325,20.622l35.761,29.907c1.519,1.313,3.634,1.99,5.888,1.88h0.05c0.159,0.008,0.318,0.012,0.476,0.012c0,0,0,0,0,0   c2.079,0,3.994-0.669,5.381-1.872L91.69,20.605c1.365-1.176,1.971-2.324,1.662-3.153c-0.404-1.073-2.093-1.233-3.063-1.233H9.713   c-0.974,0-2.667,0.161-3.067,1.238C6.34,18.286,6.948,19.437,8.325,20.622z M9.713,18.087h80.576c0.506,0,0.87,0.053,1.11,0.111   c-0.156,0.234-0.438,0.571-0.917,0.984l-35.81,29.947c-1.132,0.981-2.82,1.505-4.573,1.415c-0.016-0.001-0.033-0.001-0.049-0.001   h-0.098c-0.016,0-0.033,0-0.049,0.001c-1.754,0.092-3.448-0.437-4.605-1.437L9.534,19.198c-0.491-0.423-0.777-0.765-0.934-1   C8.84,18.14,9.205,18.087,9.713,18.087z"/><path d="M91.284,28.455c-0.237-0.112-0.5-0.169-0.782-0.169c-0.893,0-1.764,0.566-2.338,1.042L54.554,57.22   c-1.196,0.979-2.776,1.518-4.448,1.518l-0.124-0.001l-0.099,0.001c-1.66,0-3.232-0.538-4.419-1.511L11.835,29.328   c-0.573-0.475-1.444-1.041-2.336-1.041c-0.282,0-0.545,0.057-0.781,0.168c-0.918,0.432-1.423,1.617-1.423,3.337V77.56   c0,3.43,2.555,6.221,5.695,6.221h74.02c3.141,0,5.696-2.79,5.696-6.221V31.791C92.706,30.073,92.201,28.888,91.284,28.455z    M90.839,77.56c0,2.4-1.717,4.353-3.828,4.353H12.99c-2.111,0-3.828-1.953-3.828-4.353V31.791c0-1.094,0.259-1.552,0.34-1.637   c0.154,0.002,0.563,0.133,1.14,0.611l33.633,27.903c1.525,1.249,3.517,1.938,5.608,1.938l0.099-0.001l0.124,0.001   c2.103,0,4.102-0.689,5.636-1.944l33.615-27.896c0.556-0.461,0.957-0.599,1.138-0.61c0.097,0.107,0.344,0.57,0.344,1.636V77.56z"/></g><text x="0" y="115" fill="#000000" font-size="5px" font-weight="bold" font-family="'Helvetica Neue', Helvetica, Arial-Unicode, Arial, Sans-serif">Created by Pedro Santos</text><text x="0" y="120" fill="#000000" font-size="5px" font-weight="bold" font-family="'Helvetica Neue', Helvetica, Arial-Unicode, Arial, Sans-serif">from the Noun Project</text></svg>