<svg xmlns="http://www.w3.org/2000/svg" xmlns:xlink="http://www.w3.org/1999/xlink" version="1.0" x="0px" y="0px" viewBox="0 0 100 125" enable-background="new 0 0 100 100" xml:space="preserve"><path fill="none" stroke="#000000" stroke-width="2" stroke-linecap="round" stroke-linejoin="round" stroke-miterlimit="10" d="  M10,10v65h48.401c-0.411-0.159-0.776-0.362-1.015-0.686c-0.721-0.992-0.047-2.732-0.431-3.921c-0.374-1.151-1.955-2.157-1.955-3.429  c0-1.274,1.581-2.28,1.955-3.428c0.384-1.188-0.29-2.932,0.431-3.921c0.729-0.999,2.598-0.892,3.598-1.622  c0.991-0.721,1.463-2.536,2.652-2.922c1.148-0.372,2.59,0.807,3.863,0.807c1.271,0,2.717-1.179,3.863-0.807  c1.188,0.386,1.662,2.201,2.652,2.922c1,0.73,2.87,0.623,3.598,1.622c0.721,0.989,0.046,2.732,0.434,3.921  C78.419,64.685,80,65.69,80,66.965c0,1.271-1.581,2.277-1.953,3.429c-0.388,1.188,0.287,2.932-0.434,3.921  C77.375,74.638,77.012,74.841,76.6,75H90V10H10z"/><path fill="none" stroke="#000000" stroke-width="2" stroke-linecap="round" stroke-linejoin="round" stroke-miterlimit="10" d="  M80,66.965c0,1.271-1.581,2.277-1.953,3.429c-0.388,1.188,0.287,2.932-0.434,3.921c-0.728,0.999-2.598,0.892-3.598,1.622  c-0.99,0.721-1.464,2.532-2.652,2.922c-1.146,0.372-2.592-0.807-3.863-0.807c-1.273,0-2.717,1.179-3.863,0.807  c-1.191-0.39-1.661-2.201-2.652-2.925c-1-0.728-2.871-0.62-3.598-1.619c-0.721-0.992-0.047-2.732-0.431-3.921  c-0.374-1.151-1.955-2.157-1.955-3.429c0-1.274,1.581-2.28,1.955-3.428c0.384-1.188-0.29-2.932,0.431-3.921  c0.729-0.999,2.598-0.892,3.598-1.622c0.991-0.721,1.463-2.536,2.652-2.922c1.148-0.372,2.59,0.807,3.863,0.807  c1.271,0,2.717-1.179,3.863-0.807c1.188,0.386,1.662,2.201,2.652,2.922c1,0.73,2.87,0.623,3.598,1.622  c0.721,0.989,0.046,2.732,0.434,3.921C78.419,64.685,80,65.69,80,66.965z"/><path fill="none" stroke="#000000" stroke-width="2" stroke-linecap="round" stroke-linejoin="round" stroke-miterlimit="10" d="  M74.016,75.937c-0.99,0.721-1.464,2.532-2.652,2.922c-1.146,0.372-2.592-0.807-3.863-0.807c-1.273,0-2.717,1.179-3.863,0.807  c-1.191-0.39-1.661-2.201-2.652-2.925c-0.275-0.2-0.619-0.338-0.984-0.451V90l7.5-4.999L75,90V75.485  C74.635,75.6,74.291,75.733,74.016,75.937z"/><rect x="20" y="20.001" fill="none" stroke="#000000" stroke-width="2" stroke-linecap="round" stroke-linejoin="round" stroke-miterlimit="10" width="49.999" height="9.998"/><path fill="none" stroke="#000000" stroke-width="2" stroke-linecap="round" stroke-linejoin="round" stroke-miterlimit="10" d="  M20,40h59.998H20z"/><path fill="none" stroke="#000000" stroke-width="2" stroke-linecap="round" stroke-linejoin="round" stroke-miterlimit="10" d="  M20,47.5h49.999H20z"/><path fill="none" stroke="#000000" stroke-width="2" stroke-linecap="round" stroke-linejoin="round" stroke-miterlimit="10" d="  M20,55h25H20z"/><path fill="none" stroke="#000000" stroke-width="2" stroke-linecap="round" stroke-linejoin="round" stroke-miterlimit="10" d="  M20,62.5h25H20z"/><text x="0" y="115" fill="#000000" font-size="5px" font-weight="bold" font-family="'Helvetica Neue', Helvetica, Arial-Unicode, Arial, Sans-serif">Created by Danil Polshin</text><text x="0" y="120" fill="#000000" font-size="5px" font-weight="bold" font-family="'Helvetica Neue', Helvetica, Arial-Unicode, Arial, Sans-serif">from the Noun Project</text></svg>